<svg width="24" height="24" viewBox="0 0 24 24" fill="none" xmlns="http://www.w3.org/2000/svg">
  <path d="M12 15.2a3.2 3.2 0 1 0 0-6.4 3.2 3.2 0 0 0 0 6.4Z" stroke="currentColor" stroke-width="2"/>
  <path d="M19.2 13.4v-2.8l-2-.5c-.2-.6-.4-1.1-.7-1.6l1-1.8-2-2-1.8 1c-.5-.3-1-.5-1.6-.7l-.5-2H8.8l-.5 2c-.6.2-1.1.4-1.6.7l-1.8-1-2 2 1 1.8c-.3.5-.5 1-.7 1.6l-2 .5v2.8l2 .5c.2.6.4 1.1.7 1.6l-1 1.8 2 2 1.8-1c.5.3 1 .5 1.6.7l.5 2h2.8l.5-2c.6-.2 1.1-.4 1.6-.7l1.8 1 2-2-1-1.8c.3-.5.5-1 .7-1.6l2-.5Z" stroke="currentColor" stroke-width="1.6" stroke-linejoin="round"/>
</svg>
